<?xml version="1.0" encoding="utf-8"?>
<!-- Generator: Adobe Illustrator 23.0.2, SVG Export Plug-In . SVG Version: 6.00 Build 0)  -->
<svg version="1.1" id="Capa_1" xmlns="http://www.w3.org/2000/svg" xmlns:xlink="http://www.w3.org/1999/xlink" x="0px" y="0px"
	 viewBox="0 0 292.4 402" style="enable-background:new 0 0 292.4 402;" xml:space="preserve">
<style type="text/css">
	.st0{fill:#1D70B8;}
</style>
<g>
	<g>
		<path class="st0" d="M18.3,164.5h255.8c4.9,0,9.2-1.8,12.8-5.4c3.6-3.6,5.4-7.9,5.4-12.8s-1.8-9.2-5.4-12.9L159,5.4
			c-3.6-3.6-7.9-5.4-12.8-5.4c-5,0-9.2,1.8-12.9,5.4L5.4,133.3c-3.6,3.6-5.4,7.9-5.4,12.9c0,4.9,1.8,9.2,5.4,12.8
			C9,162.6,13.3,164.5,18.3,164.5z"/>
		<path class="st0" d="M274.1,237.5H18.3c-5,0-9.2,1.8-12.8,5.4c-3.6,3.6-5.4,7.9-5.4,12.8c0,4.9,1.8,9.2,5.4,12.8l127.9,127.9
			c3.6,3.6,7.9,5.4,12.9,5.4c4.9,0,9.2-1.8,12.8-5.4l127.9-127.9c3.6-3.6,5.4-7.9,5.4-12.8c0-4.9-1.8-9.2-5.4-12.8
			C283.3,239.4,279,237.5,274.1,237.5z"/>
	</g>
</g>
</svg>
